<svg xmlns="http://www.w3.org/2000/svg" viewBox="0 0 210.07 23.44">
  <defs>
    <style>
      .cls-1 {
        fill: #fff;
      }
    </style>
  </defs>
  <title>Asset 1</title>
  <g id="Layer_2" data-name="Layer 2">
    <g id="Layer_1-2" data-name="Layer 1">
      <g>
        <g>
          <path class="cls-1" d="M18.3,18.85v0l-.77.33-3.22,2.34s0,0,0,0l-2.67.74h-4L3.6,21.59s0,0,0,0l-2.22-1.8-.8.1h0l0,0L0,18.88.55,17a0,0,0,0,1,0,0L3,14.8h.06L6,16.86l3.45.41L12,17.08l.7-1.48-2.44-1.25v0l-.2-.29-2.37-.32-3.9-1.65L1.09,9.81s0,0,0-.06L1,5.37v0l.32-1.19s0,0,0,0L3.25,1.83l.09-.7s0,0,0,0L8.2,0s0,0,0,0l3.28.13,3.63.74s0,0,0,0L18,3V3l-.64.78L15.63,6.85l0,0-.67.33h0l0,0L12,5.5h0L9.55,5,7.07,5.7,6.66,7.37,10.1,8.46l.32.42,5.28,1h0l.52.54s0,0,0,0l2.35,3.09,0,0Z"/>
          <path class="cls-1" d="M42.78,2.83V2.9l-.1,4.72-.44,1.61.54,2.9v0l-.54,2.28L41.91,17l-2.57,3.92V21l0,0-5.63,1.38h0l-6-.51a0,0,0,0,1,0,0l-3-2.67h0l0,0v0L23,16.92s0,0,0,0,0,0,0,0l-.71-5.47v0l.45-2.64L22.2,3.93,22.42.45h0L24.8.23h.87L27.31,0l0,0,1.29.42v0L29,2V2l-.19,4.73,0,0h0l-.38.51.54,4.64-.41,1.83L29,15.06,31.62,17l3.86-.83,1.29-3.35-.42-3.28V9.42l.1-5.59L36,1.93v0h0s0,0,0,0l.64-1.5s0,0,0,0L42,.45h0l.64.45a0,0,0,0,1,0,0l-.12.74Z"/>
          <path class="cls-1" d="M63,14.12l0,.1h0l-3,1.32L57.29,16h-.06l-3.7-.23.19,4.47v.07l-.32,1.48v0l-1.32.45L50.44,22h-.9l-2.35-.22v0L47,18.5l.1-1.84a.09.09,0,0,0,.06,0l.26-.48.23-3.89L47,9.88v0l.65-4.74-.42-3.18V1.86L47.83.58a0,0,0,0,1,0,0l.61-.18h1.41s0,0,.07,0l5.66.18L56.87.16l0,0H57l4.09,1L63.5,2.7h0l0,0L65,4.54v0l.45,5.76ZM53.21,5.7l.19,1.57v.07L53.3,11l3.48.23,2.28-.77.65-2.64L58.71,6l-1.16-.34-1.29-.39Z"/>
        </g>
        <path class="cls-1" d="M86.89,22.05a0,0,0,0,1,0,0H81l-1.93.23h0l-2.58-.55-6.78.45h0l-1-.22,0,0,.64-2.06-.64-2.22v-.07l.22-2-.22-3.15.45-2.7-.32-2.09s0,0,0-.07l.51-4.28L68.69.14s0,0,.06,0l2.16.32L74.77.21h3.38L82.84.4,85.48.21l.8.54a0,0,0,0,1,0,0V2.14l-.17,2.09.33.77V5h0l-2.39.45-3.47-.32-2.35.36L75,5.68,74.7,7.8,75,9.05l3-.35h0l5.24,0,1-.19h0l.87,1.29a0,0,0,0,1,0,.06l-.22,2.41-.52,1s0,0,0,0l-1.19.23h-.06L81,13.46,78,13.79h-.06l-3-.23-.41,1.61.32,1.89,3.51-.22h0l2.48.42,1.7-.32h0l2.77-.43h1.35v.07l-.42,1.58.23.83v2Z"/>
        <path class="cls-1" d="M111.35,22.08h-.58l-1.84.13-4.53-.13h0L104,20.89l-3.58-5.37-2.64-.32-.22,4.05.74,2.61,0,.1a0,0,0,0,1,0,0l-2.09.22-3-.22H91.56s0,0-.06,0l-.42-1.16v-.07l.77-3.41s0,0,0,0L91.3,16V16l.62-5s0,0,0,0L91.4,9.41l.48-2.16L91.4,1.69V1.62L91.85.47s0,0,0,0L93.59.21l2.6.45s0,0,0,0L98.09.34h0s0,0,0,0H102s0,0,0,0h0l3.44.41,3.44,1.93s0,0,0,0l1.84,3.7-.65,4.64v0l-2.47,2.67s0,0,0,0l-1.49.73,2.39,2.64,1.7,2.28.25.55Zm-7.44-12,1-1.19L104.23,6l-3.73-.74-2.77.22.1,1.09v.07l-.19,4.06,3.64-.14h1.48Z"/>
        <path class="cls-1" d="M137.63,20.12,137.4,22a0,0,0,0,1,0,0l-2.58.22-2.18,0h0l-.8-.13h0l-1.42-2.57-3.15-3.18-.07,0,0,0L125.47,13l-1.29-1v0L122.83,10,123,13.4v1.74l-.65,3.44.74,3.6h-1.68l-3-.19H117l0,0v0l.23-.74h0l-.32-3.44v0l.55-3.22L116.71,11v-.06l.55-1.71-.19-2.57-.68-4.76v0L117,.46a0,0,0,0,1,0,0l1.7-.22h0l2.6.19,1.19.22,0,0,.06.13L126,5.39l1.73,1.28v0l1.39,2.12s0,0,0,0l1.83,2.35v0l.45,1.1.36-5.09-.46-1.7v0L131.74,3s0,0,0,0l-.36-2.7,0,0h0l1.19.41,3.44-.41h0l1.16.22s0,0,0,0l.23,2.06v0l-.36,1.67s0,0,0,0l.33,2.09v0s0,0,0,0l-.23,5.92.13.83v.07L137,15.36l.65,4.73Z"/>
        <g>
          <path class="cls-1" d="M163.49,13.6v0l-.84,3.12v0l-.54.77.1.45a.07.07,0,0,1,0,.06L158,21.93l-2.5.9h0l-2.38.61H153l-2.45-.06L148,22.44l-2-.51h0L143.16,19l-1.25-.64,0,0-1.22-4.28.13-3.89s0,0,0,0L142,7.29l1.13-2.57s0,0,.06,0l.61-.13,2.77-2.87s0,0,0,0h0l1.16-.13,3.7-.74h.07l.29.45,1.8-.25,0,0,0,0,4.6,1.77h0l.8.35h0L163,7.42s0,0,0,0v.74l.42,5.37Zm-16.76-2.74-.29,2.54,1.83,3,2.61,1.52,1.81.22,2-.9v0l2.12-1.51,1-2.29-.13-2.18v0l-1.51-3.06-2.38-1.57-2.84-.45L148.4,7.48v0l-1,1.44-.68,1.84Z"/>
          <path class="cls-1" d="M186.65,4.43v0l-1.29,4.76v0l-1.51,2.29-.32,1.89v0l-.54,2-1.29,1.71-.77,3.37h0l-1.36,2.77,0,0h0l-2.38-.42-3.12.31h0L173.11,22a0,0,0,0,0,0,0l-1.51-2.8-.2-2.54v0l-2-3.31v0l-.42-3-2.6-4-.42-3-.87-1.6v0s0,0,0,0l1.71-.32h0l1.93.13s0,0,0,0l2.58.1h0l.74.67s0,0,0,0L173,4.59v0L174,7.93V8h0l0,0,1.09,3,1.48,4.22.29-1v0l1.29-2.42,1.19-4.57v0l1-1.38.23-2.19h0l1.16-2.35s0,0,0,0h0l3.53.55L188,1.37h0s0,0,0,0v0Z"/>
          <path class="cls-1" d="M210.07,23v0h0l-1.29.22h0l-2-.44L205,23h-1.74a0,0,0,0,1,0,0l-.42-2.35v0l-.64-1.48-3,.22h0l-2.57-.22-2.54.22-1.51,3.22s0,0,0,0l-.61.2h0l-1.93.22h-.07l-1.89-.09L186.2,23h-.07v-.09l.88-3.19s0,0,0,0l1.9-3,.86-3s0,0,0,0l1.7-2.57.87-3.19s0,0,0-.07l1.29-2.15L194.57,1v0h.06l1.93.45,1.71-.22h0l1.89.41,1.74-.41h0v0l.23,3.21,1.25,1.48a0,0,0,0,1,0,0l.45,3,.84,1.93s0,0,0,0,0,0,0,0l1.95,4.25v0l1.07,1.92,0,0,1.29,2.12,1,3.67Zm-11.8-14.6-1,3.37,0,0,0,0-1.44,2.7,2.34.42,2.54-.42-1.09-4Z"/>
        </g>
      </g>
    </g>
  </g>
</svg>
